<svg width="31" height="34" fill="none" xmlns="http://www.w3.org/2000/svg"><path d="M15.547 16.377c-.83 0-1.626-.363-2.213-1.009a3.624 3.624 0 01-.917-2.434c0-.912.33-1.788.917-2.434.587-.645 1.383-1.008 2.213-1.008.83 0 1.625.363 2.212 1.008.587.646.917 1.521.917 2.434 0 .452-.081.9-.238 1.318a3.482 3.482 0 01-.679 1.116c-.29.32-.635.573-1.015.746-.38.174-.787.262-1.197.262zm0-13.08c-2.324 0-4.553 1.015-6.196 2.822-1.643 1.808-2.566 4.26-2.566 6.815 0 7.229 8.762 17.9 8.762 17.9s8.761-10.671 8.761-17.9c0-2.556-.923-5.007-2.566-6.815-1.643-1.807-3.872-2.823-6.195-2.823z" fill="#303031"/></svg>