<svg width="27" height="27" fill="none" xmlns="http://www.w3.org/2000/svg"><path d="M22.444 23.625c-2.344 0-4.66-.51-6.947-1.532-2.288-1.022-4.369-2.47-6.244-4.346-1.875-1.875-3.323-3.956-4.345-6.244C3.887 9.216 3.376 6.9 3.375 4.556c0-.337.112-.619.337-.844.225-.225.507-.337.844-.337h4.557c.262 0 .496.09.703.268.206.178.328.389.365.632l.732 3.938c.037.3.028.553-.029.759-.056.206-.159.384-.309.534l-2.728 2.756c.375.694.82 1.364 1.335 2.01.515.647 1.083 1.271 1.702 1.872.582.581 1.191 1.12 1.829 1.618a17.63 17.63 0 002.025 1.363l2.643-2.644c.169-.169.39-.295.662-.379.272-.084.539-.107.8-.07l3.882.787c.262.075.478.21.647.408a.991.991 0 01.253.66v4.557c0 .337-.113.619-.337.844a1.145 1.145 0 01-.844.337z" fill="currentColor"/></svg>