<svg width="229" height="68" fill="none" xmlns="http://www.w3.org/2000/svg"><g clip-path="url(#clip0_25_749)"><path d="M83.754 22.84L33.165 39.345l-4.084 1.33.446 3.549L32.559 68l8.08-18.355 43.115-26.806zM50.874 28.629l4.084-1.343-.446-3.535L51.468 0l-8.069 18.318L0 45.26l50.874-16.63z" fill="#A55A2F"/><path d="M116.412 17.63h-15.197v31.992h15.197c8.489 0 16.62-6.899 16.62-16.04 0-9.14-7.673-15.952-16.62-15.952zm0 25.881h-8.774V23.752h8.774c5.878 0 10.197 4.028 10.197 9.83 0 5.803-4.356 9.917-10.197 9.917v.012zM163.289 38.251c0-7.268-5.878-12.158-13.737-12.158-7.858 0-13.81 5.161-13.81 12.158 0 6.998 5.927 12.073 13.81 12.073 6.287 0 11.212-3.018 12.957-7.675h-6.522c-1.188 1.65-3.403 2.649-6.15 2.649-3.861 0-6.794-2.193-7.487-5.482h20.852c.087-.505.087-1.047.087-1.565zm-20.939-1.65c.693-3.203 3.49-5.347 7.202-5.347 3.713 0 6.485 2.095 7.128 5.347h-14.33zM167.694 17.63v31.992h6.435V17.63h-6.435zM196.219 32.67v-5.9h-6.621v-5.112h-6.435v5.112h4.183l-8.861 2.932v2.969h4.678v6.258c0 7.17 4.554 11.383 13.043 11.383v-5.938c-4.418 0-6.62-1.786-6.62-5.445V32.67h6.633zM223.122 26.77l-.644 3.018c-2.351-2.377-5.742-3.708-9.603-3.708-7.672 0-13.365 5.162-13.365 12.159 0 6.997 5.742 12.073 13.365 12.073 3.899 0 7.252-1.368 9.603-3.696l.644 3.006h5.692V26.77h-5.692zm-8.861 17.875c-4.813 0-8.303-2.698-8.303-6.406 0-3.708 3.49-6.541 8.303-6.541 4.814 0 8.131 2.698 8.131 6.541 0 3.844-3.267 6.406-8.131 6.406z" fill="#fff"/></g><defs><clipPath id="clip0_25_749"><path fill="#fff" d="M0 0h229v68H0z"/></clipPath></defs></svg>