<svg width="227" height="68" fill="none" xmlns="http://www.w3.org/2000/svg"><g clip-path="url(#clip0_26_838)"><path d="M83.023 22.84L32.875 39.346l-4.048 1.33.442 3.548L32.274 68l8.01-18.355L83.024 22.84zM50.43 28.629l4.047-1.343-.441-3.535L51.018 0 43.02 18.318 0 45.26l50.43-16.63z" fill="#A55A2F"/><path d="M115.579 11.998h-15.063v31.993h15.063c8.415 0 16.475-6.899 16.475-16.04 0-9.14-7.606-15.953-16.475-15.953zm0 25.882h-8.697V18.121h8.697c5.827 0 10.108 4.028 10.108 9.83 0 5.803-4.318 9.917-10.108 9.917v.012zM162.046 32.62c0-7.268-5.826-12.159-13.616-12.159-7.789 0-13.69 5.162-13.69 12.16 0 6.996 5.876 12.072 13.69 12.072 6.232 0 11.114-3.018 12.844-7.675h-6.465c-1.178 1.65-3.373 2.648-6.097 2.648-3.827 0-6.734-2.192-7.421-5.481h20.67c.085-.506.085-1.047.085-1.565zm-20.755-1.65c.687-3.203 3.459-5.347 7.139-5.347s6.428 2.094 7.066 5.346h-14.205zM166.414 11.998v31.993h6.378V11.999h-6.378zM194.689 27.04v-5.9h-6.563v-5.113h-6.379v5.112h4.146l-8.783 2.932v2.969h4.637v6.258c0 7.17 4.514 11.383 12.93 11.383v-5.938c-4.38 0-6.563-1.786-6.563-5.445V27.04H194.689zM221.357 21.14l-.638 3.017c-2.33-2.377-5.691-3.708-9.519-3.708-7.605 0-13.248 5.162-13.248 12.159 0 6.997 5.692 12.072 13.248 12.072 3.864 0 7.189-1.367 9.519-3.695l.638 3.005H227V21.14h-5.643zm-8.783 17.874c-4.772 0-8.231-2.698-8.231-6.406 0-3.708 3.459-6.541 8.231-6.541s8.06 2.697 8.06 6.54c0 3.844-3.239 6.407-8.06 6.407zM103.803 52.281h.711v5.125h-.883v-3.597l-2.821 3.597h-.712V52.28h.884v3.597l2.833-3.597h-.012zM109.397 52.281h.883v5.125h-.883v-2.144h-2.638v2.144h-.883V52.28h.883v2.131h2.638v-2.13zM114.537 54.13c.502 0 .92.147 1.263.455.344.308.515.702.515 1.182s-.171.875-.515 1.183c-.343.308-.761.456-1.263.456h-2.159v-4.262h-1.423v-.863h2.306v1.848H114.537zm0 2.45a.934.934 0 00.637-.221.74.74 0 00.258-.592.74.74 0 00-.258-.59.934.934 0 00-.637-.223h-1.264v1.627h1.264zM117.836 55.25c.086.456.295.813.626 1.072.331.258.736.381 1.215.381.674 0 1.165-.246 1.472-.751l.76.431c-.503.776-1.251 1.158-2.245 1.158-.809 0-1.472-.259-1.975-.764-.503-.505-.76-1.158-.76-1.934s.245-1.416.748-1.922c.491-.517 1.141-.763 1.926-.763.748 0 1.362.27 1.828.788.478.53.711 1.17.711 1.91 0 .135 0 .258-.037.394h-4.281.012zm1.755-2.255c-.479 0-.871.136-1.19.407-.307.27-.503.628-.577 1.084h3.41c-.073-.48-.269-.85-.576-1.109a1.601 1.601 0 00-1.067-.382zM127.478 57.406h-1.104l-2.33-2.427v2.427h-.884V52.28h.884v2.267l2.208-2.267h1.14l-2.441 2.476 2.527 2.649zM132.594 56.556h.834v2.23h-.883v-1.368H128.3v-5.124h.883v4.274h2.515v-4.274h.883v4.274l.013-.012zM138.077 52.281h.711v5.125h-.883v-3.597l-2.821 3.597h-.712V52.28h.884v3.597l2.833-3.597h-.012zM144.456 56.765a2.635 2.635 0 01-1.914.776c-.748 0-1.386-.258-1.901-.776a2.623 2.623 0 01-.785-1.922c0-.763.257-1.392.785-1.921.515-.518 1.153-.776 1.901-.776s1.386.258 1.914.776c.527.517.785 1.158.785 1.921 0 .764-.258 1.392-.785 1.922zm-1.914-.099c.515 0 .945-.172 1.288-.517.344-.345.515-.788.515-1.306 0-.517-.171-.948-.515-1.306-.343-.344-.773-.517-1.288-.517s-.932.173-1.276.517c-.343.346-.515.789-.515 1.306 0 .518.172.949.515 1.306.344.345.773.517 1.276.517zM149.816 52.281h.884v5.125h-.884v-2.144h-2.637v2.144h-.883V52.28h.883v2.131h2.637v-2.13zM155.582 52.281h.883v5.125h-.883v-2.144h-2.638v2.144h-.883V52.28h.883v2.131h2.638v-2.13zM159.973 54.13c.516 0 .933.147 1.276.455.331.308.503.702.503 1.182s-.172.875-.503 1.183c-.331.308-.76.456-1.276.456h-2.159V52.28h.884v1.848h1.275zm0 2.45a.935.935 0 00.638-.221.74.74 0 00.258-.592.74.74 0 00-.258-.59.935.935 0 00-.638-.223h-1.263v1.627h1.263zm2.442-4.299h.883v5.125h-.883V52.28zM165.285 55.25c.086.456.294.813.626 1.072.331.258.736.381 1.214.381.675 0 1.165-.246 1.472-.751l.761.431c-.503.776-1.252 1.158-2.245 1.158-.81 0-1.472-.259-1.975-.764-.503-.505-.761-1.158-.761-1.934s.246-1.416.748-1.922c.491-.517 1.141-.763 1.926-.763.749 0 1.362.27 1.828.788.479.53.712 1.17.712 1.91 0 .135 0 .258-.037.394h-4.281.012zm1.766-2.255c-.478 0-.871.136-1.189.407-.307.27-.503.628-.577 1.084h3.41c-.073-.48-.27-.85-.576-1.109a1.602 1.602 0 00-1.068-.382zM176.963 52.281v.863h-1.729v4.262h-.884v-4.262h-1.742v-.863h4.367-.012zM178.153 55.25c.086.456.294.813.626 1.072.331.258.736.381 1.214.381.675 0 1.165-.246 1.472-.751l.761.431c-.503.776-1.252 1.158-2.245 1.158-.81 0-1.472-.259-1.975-.764-.503-.505-.761-1.158-.761-1.934s.246-1.416.749-1.922c.49-.517 1.14-.763 1.925-.763.749 0 1.362.27 1.828.788.479.53.712 1.17.712 1.91 0 .135 0 .258-.037.394h-4.281.012zm1.766-2.255c-.478 0-.871.136-1.189.407-.307.27-.503.628-.577 1.084h3.41c-.073-.48-.27-.85-.576-1.109a1.602 1.602 0 00-1.068-.382zM187.684 57.406h-1.042l-1.423-1.934-1.435 1.934h-1.043l1.963-2.636-1.853-2.489h1.055l1.313 1.787 1.312-1.787h1.043l-1.84 2.476 1.95 2.649zM192.039 52.281h.883v5.125h-.883v-2.144h-2.637v2.144h-.883V52.28h.883v2.131h2.637v-2.13zM198.578 56.765a2.635 2.635 0 01-1.914.776c-.748 0-1.386-.258-1.901-.776a2.624 2.624 0 01-.786-1.922c0-.763.258-1.392.786-1.921.515-.518 1.153-.776 1.901-.776s1.386.258 1.914.776c.527.517.785 1.158.785 1.921 0 .764-.258 1.392-.785 1.922zm-1.902-.099c.515 0 .945-.172 1.288-.517.344-.345.515-.788.515-1.306 0-.517-.171-.948-.515-1.306-.343-.344-.773-.517-1.288-.517s-.932.173-1.276.517c-.343.346-.515.789-.515 1.306 0 .518.172.949.515 1.306.344.345.773.517 1.276.517zM204.49 52.281v5.125h-.883v-4.262h-2.012v2.094c0 .837-.172 1.429-.503 1.761-.331.333-.809.468-1.423.42v-.838c.344.049.601-.025.785-.235.172-.197.258-.578.258-1.12v-2.932h3.79l-.012-.013zM210.145 56.765a2.63 2.63 0 01-1.913.776c-.749 0-1.387-.258-1.902-.776a2.627 2.627 0 01-.785-1.922c0-.763.258-1.392.785-1.921.515-.518 1.153-.776 1.902-.776a2.63 2.63 0 011.913.776c.528.517.785 1.158.785 1.921 0 .764-.257 1.392-.785 1.922zm-1.901-.099c.515 0 .944-.172 1.288-.517.343-.345.515-.788.515-1.306 0-.517-.172-.948-.515-1.306-.344-.344-.773-.517-1.288-.517s-.932.173-1.276.517c-.343.346-.515.789-.515 1.306 0 .518.172.949.515 1.306.344.345.773.517 1.276.517zM215.334 52.281v.863h-2.466v4.262h-.883V52.28h3.349zM219.812 52.281h.711v5.125h-.883v-3.597l-2.822 3.597h-.711V52.28h.883v3.597l2.834-3.597h-.012zM225.577 52.281h.712v5.125h-.884v-3.597l-2.821 3.597h-.712V52.28h.884v3.597l2.833-3.597h-.012z" fill="#fff"/></g><defs><clipPath id="clip0_26_838"><path fill="#fff" d="M0 0h227v68H0z"/></clipPath></defs></svg>